#!OML:ASF F:\twosubjects\two\wednesday\Session 1\rory1.ASF
:FULLY-SPECIFIED
:DEGREES
203
root 8.01722 17.8755 -8.28822 1.77612 -1.42157 -0.658128
lowerback 3.4078 -0.762505 -0.904022
upperback 1.65293 -1.03211 2.46516
thorax -0.152434 -0.531145 3.07454
lowerneck -12.6314 1.28147 1.88324
upperneck 12.2269 2.29848 -6.2459
head 5.87217 0.726701 -2.08495
rclavicle 2.2413e-014 1.11319e-014
rhumerus -41.6523 -16.7111 -65.4652
rradius 23.3573
rwrist 9.45917
rhand -24.2792 33.3972
rfingers 7.12502
rthumb 2.20767 3.42884
lclavicle 2.2413e-014 1.11319e-014
lhumerus -42.3803 7.88572 77.5884
lradius 44.7283
lwrist 10.8222
lhand -27.3051 10.1708
lfingers 7.12502
lthumb -0.714756 40.1493
rfemur -23.1295 -4.38502 21.5972
rtibia 36.4024
rfoot -18.9938 -8.32457
rtoes -0.682217
lfemur -5.82428 3.87456 -12.6296
ltibia 46.5265
lfoot -25.9 8.5294
ltoes -13.2634
204
root 8.0541 17.8584 -8.34402 1.63678 -1.22444 -0.613369
lowerback 3.57251 -0.678196 -1.0369
upperback 1.62744 -0.922542 2.51906
thorax -0.274053 -0.475604 3.20437
lowerneck -12.4399 1.11437 1.21476
upperneck 12.1574 2.13584 -5.85813
head 5.80022 0.650358 -1.86611
rclavicle -8.64713e-015 1.74931e-014
rhumerus -41.3951 -16.4529 -65.5748
rradius 23.3377
rwrist 9.65317
rhand -24.25 33.1895
rfingers 7.12502
rthumb 2.23589 3.22152
lclavicle -8.64713e-015 1.74931e-014
lhumerus -41.8647 7.81307 77.81
lradius 44.5533
lwrist 9.93011
lhand -26.344 8.60406
lfingers 7.12502
lthumb 0.213538 38.5837
rfemur -23.2177 -4.4858 21.4967
rtibia 36.478
rfoot -18.3326 -8.8675
rtoes -3.37691
lfemur -5.4573 3.30567 -12.5101
ltibia 45.367
lfoot -26.4404 7.9776
ltoes -11.2132
205
root 8.08986 17.8451 -8.40111 1.5991 -0.96955 -0.173882
lowerback 3.5693 -0.685946 -1.56641
upperback 1.65538 -0.951241 2.3288
thorax -0.235998 -0.492592 3.3074
lowerneck -12.2794 1.06133 1.22499
upperneck 11.9451 2.03439 -5.74586
head 5.70103 0.616388 -1.84007
rclavicle -1.67973e-014 -1.51076e-014
rhumerus -40.9303 -16.1619 -66.1744
rradius 23.3999
rwrist 9.25381
rhand -23.3009 34.2634
rfingers 7.12502
rthumb 3.15247 4.30698
lclavicle -1.67973e-014 -1.51076e-014
lhumerus -41.3323 7.43104 77.9157
lradius 44.753
lwrist 9.98858
lhand -25.6149 9.39195
lfingers 7.12502
lthumb 0.917687 39.3697
rfemur -23.4484 -4.52822 20.8905
rtibia 36.5886
rfoot -18.0356 -8.94665
rtoes -2.99365
lfemur -5.26772 2.92404 -12.8418
ltibia 44.2347
lfoot -26.7618 8.14485
ltoes -14.0198
206
root 8.12395 17.8438 -8.44929 1.61672 -0.699967 0.0742711
lowerback 3.4664 -0.810712 -2.00187
upperback 1.71816 -1.13177 2.16778
thorax -0.0959263 -0.587483 3.39055
lowerneck -12.3638 1.14679 1.57168
upperneck 11.8465 2.0882 -5.78967
head 5.68967 0.655492 -1.9056
rclavicle -6.95746e-016 2.74323e-014
rhumerus -40.225 -15.6333 -67.0518
rradius 23.3744
rwrist 8.69535
rhand -22.8413 35.3006
rfingers 7.12502
rthumb 3.5964 5.35121
lclavicle -6.95746e-016 2.74323e-014
lhumerus -40.9244 7.35104 77.9477
lradius 45.2245
lwrist 10.3736
lhand -25.8796 10.4239
lfingers 7.12502
lthumb 0.661992 40.4026
rfemur -23.6612 -4.64626 20.4967
rtibia 36.7335
rfoot -18.1194 -9.01544
rtoes -2.14778
lfemur -5.26395 2.44408 -12.9634
ltibia 43.1498
lfoot -26.6023 8.67571
ltoes -18.3264
207
root 8.16353 17.8445 -8.49941 1.62022 -0.479384 0.0436203
lowerback 3.46371 -0.882464 -2.12322
upperback 1.70424 -1.23104 2.15882
thorax -0.0988479 -0.637646 3.45309
lowerneck -12.3401 1.16493 1.58934
upperneck 11.8133 2.11709 -5.85358
head 5.67737 0.666505 -1.92612
rclavicle 1.09332e-015 -1.70955e-014
rhumerus -39.8006 -15.0874 -67.5755
rradius 23.5688
rwrist 8.5998
rhand -22.9716 35.9092
rfingers 7.12502
rthumb 3.47052 5.9577
lclavicle 1.09332e-015 -1.70955e-014
lhumerus -40.5132 7.31598 78.1178
lradius 45.5318
lwrist 10.3691
lhand -26.0817 11.2521
lfingers 7.12502
lthumb 0.466844 41.2313
rfemur -23.8856 -4.71804 20.3925
rtibia 36.8602
rfoot -18.2793 -9.01684
rtoes -0.853273
lfemur -5.30276 1.78296 -12.8131
ltibia 42.1079
lfoot -26.3643 8.96145
ltoes -20.3708
